<svg width="119" height="37" viewBox="0 0 119 37" fill="none" xmlns="http://www.w3.org/2000/svg">
<path d="M12.6166 18.8745C16.2518 22.3673 18.8298 24.9927 20.3504 26.751C21.1345 27.6301 21.5266 28.3785 21.5266 28.9963C21.5266 29.5903 21.0514 30.3031 20.101 31.1347C19.1506 31.9425 18.3665 32.3465 17.7487 32.3465C17.1547 32.3465 16.43 31.8475 15.5747 30.8496L7.73388 21.9039V28.8537C7.73388 29.424 7.71012 29.8398 7.6626 30.1011C7.63884 30.3625 7.53192 30.6714 7.34184 31.0278C7.0092 31.6693 6.08256 31.9901 4.56192 31.9901C2.89872 31.9901 1.92456 31.5386 1.63944 30.6357C1.49688 30.2556 1.4256 29.6497 1.4256 28.8181V9.00225C1.4256 8.45577 1.43748 8.05185 1.46124 7.79049C1.50876 7.50537 1.62756 7.18461 1.81764 6.82821C2.15028 6.18669 3.07692 5.86593 4.59756 5.86593C6.26076 5.86593 7.2468 6.30549 7.55568 7.18461C7.67448 7.58853 7.73388 8.20629 7.73388 9.03789V15.8451C10.9652 12.2099 13.5788 9.22797 15.5747 6.89949C16.4063 5.92533 17.131 5.43825 17.7487 5.43825C18.3665 5.43825 19.1506 5.85405 20.101 6.68565C21.0514 7.49349 21.5266 8.20629 21.5266 8.82405C21.5266 9.41805 21.1702 10.1309 20.4574 10.9625C19.0793 12.5544 16.9409 14.7403 14.0422 17.5202L12.6166 18.8745ZM23.2829 16.3441C23.2829 15.7976 23.2948 15.3937 23.3186 15.1323C23.3661 14.8472 23.473 14.5265 23.6393 14.1701C23.972 13.5523 24.8986 13.2434 26.4193 13.2434C27.5597 13.2434 28.3676 13.4454 28.8428 13.8493C29.2467 14.1819 29.4605 14.6928 29.4843 15.3818C29.5081 15.6194 29.5199 15.9639 29.5199 16.4154V28.8894C29.5199 29.4359 29.4962 29.8517 29.4487 30.1368C29.4249 30.3981 29.318 30.707 29.1279 31.0634C28.819 31.6812 27.9043 31.9901 26.3836 31.9901C24.8867 31.9901 23.972 31.6693 23.6393 31.0278C23.473 30.6714 23.3661 30.3625 23.3186 30.1011C23.2948 29.8398 23.2829 29.424 23.2829 28.8537V16.3441ZM29.1279 9.75069C28.9616 10.0833 28.6527 10.3209 28.2013 10.4635C27.7498 10.6061 27.1439 10.6773 26.3836 10.6773C25.6471 10.6773 25.0531 10.6061 24.6016 10.4635C24.1502 10.3209 23.8294 10.0715 23.6393 9.71505C23.473 9.35865 23.3661 9.04977 23.3186 8.78841C23.2948 8.50329 23.2829 8.08749 23.2829 7.54101C23.2829 6.99453 23.2948 6.59061 23.3186 6.32925C23.3661 6.04413 23.473 5.73525 23.6393 5.40261C23.972 4.76109 24.8986 4.44033 26.4193 4.44033C27.9161 4.44033 28.819 4.76109 29.1279 5.40261C29.318 5.75901 29.4249 6.07977 29.4487 6.36489C29.4962 6.62625 29.5199 7.03017 29.5199 7.57665C29.5199 8.12313 29.4962 8.53893 29.4487 8.82405C29.4249 9.08541 29.318 9.39429 29.1279 9.75069ZM44.9479 5.40261C45.138 5.04621 45.4587 4.79673 45.9102 4.65417C46.3616 4.51161 46.9556 4.44033 47.6922 4.44033C48.4525 4.44033 49.0584 4.51161 49.5098 4.65417C49.9612 4.79673 50.2701 5.04621 50.4364 5.40261C50.6265 5.75901 50.7334 6.07977 50.7572 6.36489C50.8047 6.62625 50.8285 7.03017 50.8285 7.57665V28.8537C50.8285 29.4002 50.8047 29.816 50.7572 30.1011C50.7334 30.3625 50.6265 30.6595 50.4364 30.9921C50.08 31.6337 49.0702 31.9544 47.407 31.9544C45.7676 31.9544 44.8528 31.3723 44.6628 30.2081C43.6648 31.3485 42.2749 31.9188 40.4929 31.9188C38.3545 31.9188 36.4062 30.9921 34.6479 29.1389C32.8897 27.2618 32.0106 25.0878 32.0106 22.6167C32.0106 20.1219 32.8897 17.936 34.6479 16.059C36.4299 14.1819 38.3782 13.2434 40.4929 13.2434C42.2511 13.2434 43.6173 13.8374 44.5915 15.0254V7.54101C44.5915 6.99453 44.6034 6.59061 44.6271 6.32925C44.6746 6.04413 44.7816 5.73525 44.9479 5.40261ZM39.1742 24.7551C39.792 25.3967 40.5404 25.7174 41.4195 25.7174C42.2986 25.7174 43.0233 25.3967 43.5936 24.7551C44.1876 24.1136 44.4846 23.4127 44.4846 22.6524C44.4846 21.8683 44.1994 21.1436 43.6292 20.4783C43.0827 19.8131 42.3343 19.4804 41.3839 19.4804C40.4335 19.4804 39.6732 19.8131 39.1029 20.4783C38.5327 21.1199 38.2476 21.8327 38.2476 22.6167C38.2476 23.4008 38.5564 24.1136 39.1742 24.7551ZM69.9906 25.1472L70.6321 24.6839C71.4399 24.2087 72.0102 23.9711 72.3428 23.9711C73.0794 23.9711 73.8753 24.6363 74.7307 25.9669C75.2534 26.7985 75.5148 27.4638 75.5148 27.9627C75.5148 28.4617 75.3484 28.8775 75.0158 29.2101C74.7069 29.5428 74.3386 29.8398 73.911 30.1011C73.4833 30.3625 73.0675 30.612 72.6636 30.8496C72.2834 31.0872 71.4874 31.3961 70.2757 31.7762C69.0639 32.1564 67.8878 32.3465 66.7473 32.3465C65.6306 32.3465 64.4901 32.2039 63.3259 31.9188C62.1854 31.6099 60.9974 31.1109 59.7619 30.4219C58.5501 29.7091 57.4572 28.8537 56.483 27.8558C55.5088 26.8341 54.701 25.5392 54.0595 23.9711C53.4417 22.3791 53.1328 20.6565 53.1328 18.8033C53.1328 16.95 53.4417 15.2749 54.0595 13.778C54.6772 12.2574 55.4613 11.01 56.4117 10.0358C57.3859 9.03789 58.4907 8.20629 59.7262 7.54101C62.0547 6.25797 64.3951 5.61645 66.7473 5.61645C67.864 5.61645 68.9926 5.79465 70.1331 6.15105C71.2974 6.48369 72.1765 6.82821 72.7705 7.18461L73.6258 7.68357C74.0535 7.94493 74.3862 8.15877 74.6238 8.32509C75.2415 8.82405 75.5504 9.39429 75.5504 10.0358C75.5504 10.6536 75.3009 11.307 74.802 11.996C73.8753 13.2791 73.0437 13.9206 72.3072 13.9206C71.8795 13.9206 71.2736 13.6592 70.4895 13.1365C69.4916 12.3287 68.161 11.9247 66.4978 11.9247C64.9534 11.9247 63.4328 12.4593 61.9359 13.5285C61.2231 14.0513 60.6291 14.7878 60.1539 15.7382C59.6787 16.6886 59.4411 17.7697 59.4411 18.9815C59.4411 20.1695 59.6787 21.2387 60.1539 22.1891C60.6291 23.1395 61.235 23.8879 61.9716 24.4344C63.4209 25.4798 64.9297 26.0025 66.4978 26.0025C67.2344 26.0025 67.9234 25.9075 68.565 25.7174C69.2302 25.5273 69.7054 25.3373 69.9906 25.1472ZM89.3495 15.2036C89.492 13.8731 90.4306 13.2078 92.165 13.2078C93.0917 13.2078 93.7807 13.2791 94.2322 13.4216C94.6836 13.5642 94.9925 13.8137 95.1588 14.1701C95.3489 14.5265 95.4558 14.8472 95.4796 15.1323C95.5271 15.3937 95.5508 15.7976 95.5508 16.3441V28.8181C95.5508 29.3646 95.5271 29.7804 95.4796 30.0655C95.4558 30.3269 95.3608 30.6357 95.1944 30.9921C94.8618 31.6099 94.0421 31.9188 92.7353 31.9188C91.4522 31.9188 90.585 31.7643 90.1336 31.4555C89.7059 31.1228 89.4564 30.6476 89.3851 30.0299C88.506 31.2891 87.0329 31.9188 84.9658 31.9188C82.9224 31.9188 81.0216 30.9803 79.2634 29.1032C77.5051 27.2262 76.626 25.0521 76.626 22.5811C76.626 20.0863 77.5051 17.9123 79.2634 16.059C81.0454 14.1819 82.9937 13.2434 85.1083 13.2434C85.9162 13.2434 86.6527 13.386 87.318 13.6711C87.9833 13.9562 88.4466 14.2295 88.708 14.4908C88.9693 14.7284 89.1832 14.966 89.3495 15.2036ZM82.863 22.6167C82.863 23.4008 83.1719 24.1136 83.7896 24.7551C84.4074 25.3729 85.1558 25.6818 86.035 25.6818C86.9141 25.6818 87.6388 25.361 88.209 24.7195C88.803 24.078 89.1 23.3771 89.1 22.6167C89.1 21.8327 88.8149 21.108 88.2446 20.4427C87.6982 19.7774 86.9497 19.4448 85.9993 19.4448C85.0727 19.4448 84.3124 19.7774 83.7184 20.4427C83.1481 21.108 82.863 21.8327 82.863 22.6167ZM108.834 13.2078C111.21 13.2078 113.182 14.1225 114.75 15.9521C116.342 17.7578 117.138 19.9675 117.138 22.5811V28.8537C117.138 29.4002 117.114 29.816 117.067 30.1011C117.043 30.3625 116.948 30.6595 116.782 30.9921C116.449 31.6337 115.522 31.9544 114.002 31.9544C112.315 31.9544 111.341 31.5149 111.079 30.6357C110.937 30.2318 110.865 29.6259 110.865 28.8181V22.5455C110.865 21.5713 110.58 20.811 110.01 20.2645C109.464 19.718 108.715 19.4448 107.765 19.4448C106.838 19.4448 106.078 19.7299 105.484 20.3001C104.914 20.8704 104.628 21.6188 104.628 22.5455V28.8537C104.628 29.4002 104.605 29.816 104.557 30.1011C104.533 30.3625 104.426 30.6595 104.236 30.9921C103.928 31.6337 103.013 31.9544 101.492 31.9544C99.9953 31.9544 99.0805 31.6337 98.7479 30.9921C98.5815 30.6357 98.4746 30.3269 98.4271 30.0655C98.4033 29.7804 98.3915 29.3646 98.3915 28.8181V16.2015C98.3915 15.6788 98.4033 15.2868 98.4271 15.0254C98.4746 14.7403 98.5934 14.4314 98.7835 14.0988C99.1161 13.5048 100.031 13.2078 101.528 13.2078C102.977 13.2078 103.868 13.481 104.201 14.0275C104.438 14.4314 104.557 14.9185 104.557 15.4887C104.652 15.3224 104.866 15.0848 105.199 14.7759C105.531 14.4671 105.852 14.2176 106.161 14.0275C106.969 13.481 107.86 13.2078 108.834 13.2078Z" fill="#354463"/>
<path d="M85.1396 8.91C91.8848 3.63117 101.306 3.44262 108.257 8.44732L108.9 8.91" stroke="#56A9D7" stroke-width="2.97" stroke-linecap="round"/>
</svg>
